<mxfile host="Electron" modified="2023-11-24T15:56:36.715Z" agent="Mozilla/5.0 (Windows NT 10.0; Win64; x64) AppleWebKit/537.36 (KHTML, like Gecko) draw.io/22.0.3 Chrome/114.0.5735.289 Electron/25.8.4 Safari/537.36" etag="CEUFbYDXAPUDIk74Ob5J" version="22.0.3" type="device">
  <diagram name="Trang-1" id="p3L7rvH2eRiXVQYqftbW">
    <mxGraphModel dx="592" dy="346" grid="1" gridSize="10" guides="1" tooltips="1" connect="1" arrows="1" fold="1" page="1" pageScale="1" pageWidth="1100" pageHeight="850" math="1" shadow="0">
      <root>
        <mxCell id="0" />
        <mxCell id="1" parent="0" />
        <mxCell id="9SKw-1W0MjyN7YVq_DN_-28" value="&lt;font face=&quot;Times New Roman&quot;&gt;&lt;i&gt;V&lt;sub&gt;CE&lt;/sub&gt;&lt;/i&gt;&lt;/font&gt;" style="text;html=1;strokeColor=none;fillColor=none;align=center;verticalAlign=middle;whiteSpace=wrap;rounded=0;fontSize=22;fontFamily=Helvetica;fontColor=default;strokeWidth=20;movable=1;resizable=1;rotatable=1;deletable=1;editable=1;locked=0;connectable=1;" parent="1" vertex="1">
          <mxGeometry x="440.00000000000006" y="275" width="40" height="30" as="geometry" />
        </mxCell>
        <mxCell id="9SKw-1W0MjyN7YVq_DN_-68" value="" style="group" parent="1" vertex="1" connectable="0">
          <mxGeometry x="470" y="250" width="100" height="100" as="geometry" />
        </mxCell>
        <mxCell id="9SKw-1W0MjyN7YVq_DN_-66" value="" style="verticalLabelPosition=bottom;verticalAlign=top;html=1;shape=mxgraph.basic.arc;startAngle=0.335536760783999;endAngle=0.1962657520218857;rounded=0;strokeWidth=6;align=center;fontFamily=Helvetica;fontSize=22;fontColor=default;fillColor=none;gradientColor=none;rotation=-180;strokeColor=#FF3333;" parent="9SKw-1W0MjyN7YVq_DN_-68" vertex="1">
          <mxGeometry width="100" height="100" as="geometry" />
        </mxCell>
        <mxCell id="9SKw-1W0MjyN7YVq_DN_-67" value="" style="endArrow=classic;html=1;rounded=0;labelBackgroundColor=default;strokeColor=#FF3333;align=center;verticalAlign=middle;fontFamily=Helvetica;fontSize=22;fontColor=default;shape=connector;strokeWidth=6;" parent="9SKw-1W0MjyN7YVq_DN_-68" edge="1">
          <mxGeometry width="50" height="50" relative="1" as="geometry">
            <mxPoint x="10" y="20" as="sourcePoint" />
            <mxPoint y="30" as="targetPoint" />
          </mxGeometry>
        </mxCell>
        <mxCell id="9SKw-1W0MjyN7YVq_DN_-48" value="&lt;font face=&quot;Times New Roman&quot;&gt;2&lt;/font&gt;" style="ellipse;whiteSpace=wrap;html=1;rounded=0;strokeWidth=1;align=center;verticalAlign=middle;fontFamily=Helvetica;fontSize=22;fontColor=default;fillColor=#D5E8D4;gradientColor=none;aspect=fixed;strokeColor=none;movable=1;resizable=1;rotatable=1;deletable=1;editable=1;locked=0;connectable=1;" parent="9SKw-1W0MjyN7YVq_DN_-68" vertex="1">
          <mxGeometry x="35" y="35" width="30" height="30" as="geometry" />
        </mxCell>
        <mxCell id="9SKw-1W0MjyN7YVq_DN_-39" value="" style="rounded=0;whiteSpace=wrap;html=1;strokeWidth=1;align=center;verticalAlign=middle;fontFamily=Helvetica;fontSize=22;fontColor=default;fillColor=none;gradientColor=none;dashed=1;movable=1;resizable=1;rotatable=1;deletable=1;editable=1;locked=0;connectable=1;" parent="1" vertex="1">
          <mxGeometry x="360" y="210" width="140" height="160" as="geometry" />
        </mxCell>
        <mxCell id="9SKw-1W0MjyN7YVq_DN_-1" value="" style="verticalLabelPosition=bottom;shadow=0;dashed=0;align=center;html=1;verticalAlign=top;shape=mxgraph.electrical.transistors.npn_transistor_5;fontSize=22;movable=1;resizable=1;rotatable=1;deletable=1;editable=1;locked=0;connectable=1;direction=east;" parent="1" vertex="1">
          <mxGeometry x="385.82" y="240" width="64" height="100" as="geometry" />
        </mxCell>
        <mxCell id="9SKw-1W0MjyN7YVq_DN_-6" style="edgeStyle=orthogonalEdgeStyle;rounded=0;orthogonalLoop=1;jettySize=auto;html=1;exitX=1;exitY=0.5;exitDx=0;exitDy=0;exitPerimeter=0;endArrow=none;endFill=0;fontSize=22;movable=1;resizable=1;rotatable=1;deletable=1;editable=1;locked=0;connectable=1;" parent="1" source="9SKw-1W0MjyN7YVq_DN_-2" target="9SKw-1W0MjyN7YVq_DN_-5" edge="1">
          <mxGeometry relative="1" as="geometry" />
        </mxCell>
        <mxCell id="9SKw-1W0MjyN7YVq_DN_-2" value="" style="pointerEvents=1;verticalLabelPosition=bottom;shadow=0;dashed=0;align=center;html=1;verticalAlign=top;shape=mxgraph.electrical.resistors.resistor_2;rotation=90;aspect=fixed;fontSize=22;movable=1;resizable=1;rotatable=1;deletable=1;editable=1;locked=0;connectable=1;" parent="1" vertex="1">
          <mxGeometry x="550" y="230" width="100" height="20" as="geometry" />
        </mxCell>
        <mxCell id="9SKw-1W0MjyN7YVq_DN_-3" value="" style="pointerEvents=1;verticalLabelPosition=bottom;shadow=0;dashed=0;align=center;html=1;verticalAlign=top;shape=mxgraph.electrical.resistors.resistor_2;fontSize=22;movable=1;resizable=1;rotatable=1;deletable=1;editable=1;locked=0;connectable=1;" parent="1" vertex="1">
          <mxGeometry x="250" y="280" width="100" height="20" as="geometry" />
        </mxCell>
        <mxCell id="9SKw-1W0MjyN7YVq_DN_-4" value="" style="pointerEvents=1;verticalLabelPosition=bottom;shadow=0;dashed=0;align=center;html=1;verticalAlign=top;shape=mxgraph.electrical.miscellaneous.batteryStack;rotation=-90;fontSize=22;movable=1;resizable=1;rotatable=1;deletable=1;editable=1;locked=0;connectable=1;" parent="1" vertex="1">
          <mxGeometry x="165" y="345" width="70" height="60" as="geometry" />
        </mxCell>
        <mxCell id="9SKw-1W0MjyN7YVq_DN_-15" style="edgeStyle=orthogonalEdgeStyle;shape=connector;rounded=0;orthogonalLoop=1;jettySize=auto;html=1;exitX=0;exitY=0.5;exitDx=0;exitDy=0;labelBackgroundColor=default;strokeColor=default;align=center;verticalAlign=middle;fontFamily=Helvetica;fontSize=22;fontColor=default;endArrow=none;endFill=0;movable=1;resizable=1;rotatable=1;deletable=1;editable=1;locked=0;connectable=1;" parent="1" source="9SKw-1W0MjyN7YVq_DN_-5" target="9SKw-1W0MjyN7YVq_DN_-14" edge="1">
          <mxGeometry relative="1" as="geometry">
            <Array as="points">
              <mxPoint x="600" y="460" />
            </Array>
          </mxGeometry>
        </mxCell>
        <mxCell id="9SKw-1W0MjyN7YVq_DN_-5" value="" style="pointerEvents=1;verticalLabelPosition=bottom;shadow=0;dashed=0;align=center;html=1;verticalAlign=top;shape=mxgraph.electrical.miscellaneous.batteryStack;rotation=-90;aspect=fixed;fontSize=22;movable=1;resizable=1;rotatable=1;deletable=1;editable=1;locked=0;connectable=1;" parent="1" vertex="1">
          <mxGeometry x="559.92" y="336" width="80.15" height="68.36" as="geometry" />
        </mxCell>
        <mxCell id="9SKw-1W0MjyN7YVq_DN_-7" style="edgeStyle=orthogonalEdgeStyle;rounded=0;orthogonalLoop=1;jettySize=auto;html=1;exitX=1;exitY=0.5;exitDx=0;exitDy=0;entryX=0;entryY=0.5;entryDx=0;entryDy=0;entryPerimeter=0;endArrow=none;endFill=0;fontSize=22;movable=1;resizable=1;rotatable=1;deletable=1;editable=1;locked=0;connectable=1;" parent="1" source="9SKw-1W0MjyN7YVq_DN_-4" target="9SKw-1W0MjyN7YVq_DN_-3" edge="1">
          <mxGeometry relative="1" as="geometry" />
        </mxCell>
        <mxCell id="9SKw-1W0MjyN7YVq_DN_-8" style="edgeStyle=orthogonalEdgeStyle;shape=connector;rounded=0;orthogonalLoop=1;jettySize=auto;html=1;exitX=1;exitY=0.5;exitDx=0;exitDy=0;exitPerimeter=0;entryX=0;entryY=0.5;entryDx=0;entryDy=0;entryPerimeter=0;labelBackgroundColor=default;strokeColor=default;align=center;verticalAlign=middle;fontFamily=Helvetica;fontSize=22;fontColor=default;endArrow=none;endFill=0;movable=1;resizable=1;rotatable=1;deletable=1;editable=1;locked=0;connectable=1;" parent="1" source="9SKw-1W0MjyN7YVq_DN_-3" target="9SKw-1W0MjyN7YVq_DN_-1" edge="1">
          <mxGeometry relative="1" as="geometry" />
        </mxCell>
        <mxCell id="9SKw-1W0MjyN7YVq_DN_-9" style="edgeStyle=orthogonalEdgeStyle;shape=connector;rounded=0;orthogonalLoop=1;jettySize=auto;html=1;exitX=0;exitY=0.5;exitDx=0;exitDy=0;exitPerimeter=0;entryX=1;entryY=0;entryDx=0;entryDy=0;entryPerimeter=0;labelBackgroundColor=default;strokeColor=default;align=center;verticalAlign=middle;fontFamily=Helvetica;fontSize=22;fontColor=default;endArrow=none;endFill=0;movable=1;resizable=1;rotatable=1;deletable=1;editable=1;locked=0;connectable=1;" parent="1" source="9SKw-1W0MjyN7YVq_DN_-2" target="9SKw-1W0MjyN7YVq_DN_-1" edge="1">
          <mxGeometry relative="1" as="geometry" />
        </mxCell>
        <mxCell id="9SKw-1W0MjyN7YVq_DN_-10" value="" style="pointerEvents=1;verticalLabelPosition=bottom;shadow=0;dashed=0;align=center;html=1;verticalAlign=top;shape=mxgraph.electrical.signal_sources.signal_ground;fontFamily=Helvetica;fontSize=22;fontColor=default;movable=1;resizable=1;rotatable=1;deletable=1;editable=1;locked=0;connectable=1;" parent="1" vertex="1">
          <mxGeometry x="427.5" y="470" width="45" height="30" as="geometry" />
        </mxCell>
        <mxCell id="9SKw-1W0MjyN7YVq_DN_-14" value="" style="shape=waypoint;sketch=0;size=6;pointerEvents=1;points=[];fillColor=none;resizable=1;rotatable=1;perimeter=centerPerimeter;snapToPoint=1;fontFamily=Helvetica;fontSize=22;fontColor=default;movable=1;deletable=1;editable=1;locked=0;connectable=1;" parent="1" vertex="1">
          <mxGeometry x="440" y="450" width="20" height="20" as="geometry" />
        </mxCell>
        <mxCell id="9SKw-1W0MjyN7YVq_DN_-16" style="edgeStyle=orthogonalEdgeStyle;shape=connector;rounded=0;orthogonalLoop=1;jettySize=auto;html=1;exitX=0;exitY=0.5;exitDx=0;exitDy=0;entryX=0.5;entryY=0;entryDx=0;entryDy=0;entryPerimeter=0;labelBackgroundColor=default;strokeColor=default;align=center;verticalAlign=middle;fontFamily=Helvetica;fontSize=22;fontColor=default;endArrow=none;endFill=0;movable=1;resizable=1;rotatable=1;deletable=1;editable=1;locked=0;connectable=1;" parent="1" source="9SKw-1W0MjyN7YVq_DN_-4" target="9SKw-1W0MjyN7YVq_DN_-10" edge="1">
          <mxGeometry relative="1" as="geometry">
            <Array as="points">
              <mxPoint x="200" y="460" />
            </Array>
          </mxGeometry>
        </mxCell>
        <mxCell id="9SKw-1W0MjyN7YVq_DN_-17" style="edgeStyle=orthogonalEdgeStyle;shape=connector;rounded=0;orthogonalLoop=1;jettySize=auto;html=1;exitX=1;exitY=1;exitDx=0;exitDy=0;exitPerimeter=0;entryX=0.643;entryY=0.221;entryDx=0;entryDy=0;entryPerimeter=0;labelBackgroundColor=default;strokeColor=default;align=center;verticalAlign=middle;fontFamily=Helvetica;fontSize=22;fontColor=default;endArrow=none;endFill=0;movable=1;resizable=1;rotatable=1;deletable=1;editable=1;locked=0;connectable=1;" parent="1" source="9SKw-1W0MjyN7YVq_DN_-1" target="9SKw-1W0MjyN7YVq_DN_-14" edge="1">
          <mxGeometry relative="1" as="geometry">
            <Array as="points">
              <mxPoint x="450" y="340" />
            </Array>
          </mxGeometry>
        </mxCell>
        <mxCell id="9SKw-1W0MjyN7YVq_DN_-18" value="&lt;font face=&quot;Times New Roman&quot;&gt;&lt;i&gt;R&lt;sub&gt;C&lt;/sub&gt;&lt;/i&gt;&lt;/font&gt;" style="text;html=1;strokeColor=none;fillColor=none;align=center;verticalAlign=middle;whiteSpace=wrap;rounded=0;fontSize=22;fontFamily=Helvetica;fontColor=default;strokeWidth=20;movable=1;resizable=1;rotatable=1;deletable=1;editable=1;locked=0;connectable=1;" parent="1" vertex="1">
          <mxGeometry x="620" y="225" width="40" height="30" as="geometry" />
        </mxCell>
        <mxCell id="9SKw-1W0MjyN7YVq_DN_-20" value="&lt;font face=&quot;Times New Roman&quot;&gt;&lt;i&gt;V&lt;sub&gt;CC&lt;/sub&gt;&lt;/i&gt;&lt;/font&gt;" style="text;html=1;strokeColor=none;fillColor=none;align=center;verticalAlign=middle;whiteSpace=wrap;rounded=0;fontSize=22;fontFamily=Helvetica;fontColor=default;strokeWidth=20;movable=1;resizable=1;rotatable=1;deletable=1;editable=1;locked=0;connectable=1;" parent="1" vertex="1">
          <mxGeometry x="650.0000000000001" y="355.18" width="40" height="30" as="geometry" />
        </mxCell>
        <mxCell id="9SKw-1W0MjyN7YVq_DN_-22" value="&lt;font face=&quot;Times New Roman&quot;&gt;&lt;i&gt;V&lt;sub&gt;BB&lt;/sub&gt;&lt;/i&gt;&lt;/font&gt;" style="text;html=1;strokeColor=none;fillColor=none;align=center;verticalAlign=middle;whiteSpace=wrap;rounded=0;fontSize=22;fontFamily=Helvetica;fontColor=default;strokeWidth=20;movable=1;resizable=1;rotatable=1;deletable=1;editable=1;locked=0;connectable=1;" parent="1" vertex="1">
          <mxGeometry x="125" y="355.82" width="40" height="30" as="geometry" />
        </mxCell>
        <mxCell id="9SKw-1W0MjyN7YVq_DN_-23" value="&lt;font face=&quot;Times New Roman&quot;&gt;&lt;i&gt;R&lt;sub&gt;B&lt;/sub&gt;&lt;/i&gt;&lt;/font&gt;" style="text;html=1;strokeColor=none;fillColor=none;align=center;verticalAlign=middle;whiteSpace=wrap;rounded=0;fontSize=22;fontFamily=Helvetica;fontColor=default;strokeWidth=20;movable=1;resizable=1;rotatable=1;deletable=1;editable=1;locked=0;connectable=1;" parent="1" vertex="1">
          <mxGeometry x="280.00000000000006" y="240" width="40" height="30" as="geometry" />
        </mxCell>
        <mxCell id="9SKw-1W0MjyN7YVq_DN_-29" value="&lt;font face=&quot;Times New Roman&quot;&gt;&lt;i&gt;V&lt;sub&gt;BE&lt;/sub&gt;&lt;/i&gt;&lt;/font&gt;" style="text;html=1;strokeColor=none;fillColor=none;align=center;verticalAlign=middle;whiteSpace=wrap;rounded=0;fontSize=22;fontFamily=Helvetica;fontColor=default;strokeWidth=20;movable=1;resizable=1;rotatable=1;deletable=1;editable=1;locked=0;connectable=1;" parent="1" vertex="1">
          <mxGeometry x="379.82000000000005" y="310" width="40" height="30" as="geometry" />
        </mxCell>
        <mxCell id="9SKw-1W0MjyN7YVq_DN_-30" value="&lt;font face=&quot;Times New Roman&quot;&gt;&lt;i&gt;+&lt;/i&gt;&lt;/font&gt;" style="text;html=1;strokeColor=none;fillColor=none;align=center;verticalAlign=middle;whiteSpace=wrap;rounded=0;fontSize=22;fontFamily=Helvetica;fontColor=default;strokeWidth=20;movable=1;resizable=1;rotatable=1;deletable=1;editable=1;locked=0;connectable=1;" parent="1" vertex="1">
          <mxGeometry x="440.00000000000006" y="230" width="40" height="30" as="geometry" />
        </mxCell>
        <mxCell id="9SKw-1W0MjyN7YVq_DN_-34" value="&lt;font face=&quot;Times New Roman&quot;&gt;&lt;i&gt;-&lt;/i&gt;&lt;/font&gt;" style="text;html=1;strokeColor=none;fillColor=none;align=center;verticalAlign=middle;whiteSpace=wrap;rounded=0;fontSize=22;fontFamily=Helvetica;fontColor=default;strokeWidth=20;movable=1;resizable=1;rotatable=1;deletable=1;editable=1;locked=0;connectable=1;" parent="1" vertex="1">
          <mxGeometry x="440.00000000000006" y="315" width="40" height="30" as="geometry" />
        </mxCell>
        <mxCell id="9SKw-1W0MjyN7YVq_DN_-35" value="&lt;font face=&quot;Times New Roman&quot;&gt;&lt;i&gt;+&lt;/i&gt;&lt;/font&gt;" style="text;html=1;strokeColor=none;fillColor=none;align=center;verticalAlign=middle;whiteSpace=wrap;rounded=0;fontSize=22;fontFamily=Helvetica;fontColor=default;strokeWidth=20;movable=1;resizable=1;rotatable=1;deletable=1;editable=1;locked=0;connectable=1;" parent="1" vertex="1">
          <mxGeometry x="390.82" y="295" width="30" height="20" as="geometry" />
        </mxCell>
        <mxCell id="9SKw-1W0MjyN7YVq_DN_-36" value="&lt;font face=&quot;Times New Roman&quot;&gt;&lt;i&gt;-&lt;/i&gt;&lt;/font&gt;" style="text;html=1;strokeColor=none;fillColor=none;align=center;verticalAlign=middle;whiteSpace=wrap;rounded=0;fontSize=22;fontFamily=Helvetica;fontColor=default;strokeWidth=20;movable=1;resizable=1;rotatable=1;deletable=1;editable=1;locked=0;connectable=1;" parent="1" vertex="1">
          <mxGeometry x="419.82" y="350" width="30" height="20" as="geometry" />
        </mxCell>
        <mxCell id="9SKw-1W0MjyN7YVq_DN_-40" value="&lt;span style=&quot;font-weight: 400;&quot;&gt;C&lt;/span&gt;" style="text;html=1;strokeColor=none;fillColor=none;align=center;verticalAlign=middle;whiteSpace=wrap;rounded=0;fontSize=22;fontFamily=Times New Roman;fontColor=default;fontStyle=3;movable=1;resizable=1;rotatable=1;deletable=1;editable=1;locked=0;connectable=1;" parent="1" vertex="1">
          <mxGeometry x="419.82" y="220" width="30" height="30" as="geometry" />
        </mxCell>
        <mxCell id="9SKw-1W0MjyN7YVq_DN_-41" value="&lt;span style=&quot;font-weight: 400;&quot;&gt;B&lt;/span&gt;" style="text;html=1;strokeColor=none;fillColor=none;align=center;verticalAlign=middle;whiteSpace=wrap;rounded=0;fontSize=22;fontFamily=Times New Roman;fontColor=default;fontStyle=3;movable=1;resizable=1;rotatable=1;deletable=1;editable=1;locked=0;connectable=1;" parent="1" vertex="1">
          <mxGeometry x="390.82" y="260" width="30" height="30" as="geometry" />
        </mxCell>
        <mxCell id="9SKw-1W0MjyN7YVq_DN_-42" value="&lt;span style=&quot;font-weight: 400;&quot;&gt;E&lt;/span&gt;" style="text;html=1;strokeColor=none;fillColor=none;align=center;verticalAlign=middle;whiteSpace=wrap;rounded=0;fontSize=22;fontFamily=Times New Roman;fontColor=default;fontStyle=3;movable=1;resizable=1;rotatable=1;deletable=1;editable=1;locked=0;connectable=1;" parent="1" vertex="1">
          <mxGeometry x="419.82" y="325.82" width="30" height="30" as="geometry" />
        </mxCell>
        <mxCell id="9SKw-1W0MjyN7YVq_DN_-43" value="&lt;font face=&quot;Times New Roman&quot;&gt;&lt;i&gt;+&lt;/i&gt;&lt;/font&gt;" style="text;html=1;strokeColor=none;fillColor=none;align=center;verticalAlign=middle;whiteSpace=wrap;rounded=0;fontSize=22;fontFamily=Helvetica;fontColor=default;strokeWidth=20;movable=1;resizable=1;rotatable=1;deletable=1;editable=1;locked=0;connectable=1;" parent="1" vertex="1">
          <mxGeometry x="620.0000000000001" y="325.82" width="40" height="30" as="geometry" />
        </mxCell>
        <mxCell id="9SKw-1W0MjyN7YVq_DN_-44" value="&lt;font face=&quot;Times New Roman&quot;&gt;&lt;i&gt;-&lt;/i&gt;&lt;/font&gt;" style="text;html=1;strokeColor=none;fillColor=none;align=center;verticalAlign=middle;whiteSpace=wrap;rounded=0;fontSize=22;fontFamily=Helvetica;fontColor=default;strokeWidth=20;movable=1;resizable=1;rotatable=1;deletable=1;editable=1;locked=0;connectable=1;" parent="1" vertex="1">
          <mxGeometry x="620.0000000000001" y="385.82" width="40" height="30" as="geometry" />
        </mxCell>
        <mxCell id="9SKw-1W0MjyN7YVq_DN_-45" value="&lt;font face=&quot;Times New Roman&quot;&gt;&lt;i&gt;+&lt;/i&gt;&lt;/font&gt;" style="text;html=1;strokeColor=none;fillColor=none;align=center;verticalAlign=middle;whiteSpace=wrap;rounded=0;fontSize=22;fontFamily=Helvetica;fontColor=default;strokeWidth=20;movable=1;resizable=1;rotatable=1;deletable=1;editable=1;locked=0;connectable=1;" parent="1" vertex="1">
          <mxGeometry x="150.0000000000001" y="325.82" width="40" height="30" as="geometry" />
        </mxCell>
        <mxCell id="9SKw-1W0MjyN7YVq_DN_-46" value="&lt;font face=&quot;Times New Roman&quot;&gt;&lt;i&gt;-&lt;/i&gt;&lt;/font&gt;" style="text;html=1;strokeColor=none;fillColor=none;align=center;verticalAlign=middle;whiteSpace=wrap;rounded=0;fontSize=22;fontFamily=Helvetica;fontColor=default;strokeWidth=20;movable=1;resizable=1;rotatable=1;deletable=1;editable=1;locked=0;connectable=1;" parent="1" vertex="1">
          <mxGeometry x="150.0000000000001" y="385.82" width="40" height="30" as="geometry" />
        </mxCell>
        <mxCell id="9SKw-1W0MjyN7YVq_DN_-49" value="&lt;font face=&quot;Times New Roman&quot;&gt;1&lt;/font&gt;" style="ellipse;whiteSpace=wrap;html=1;rounded=0;strokeWidth=1;align=center;verticalAlign=middle;fontFamily=Helvetica;fontSize=22;fontColor=default;fillColor=#D5E8D4;gradientColor=none;aspect=fixed;strokeColor=none;movable=1;resizable=1;rotatable=1;deletable=1;editable=1;locked=0;connectable=1;" parent="1" vertex="1">
          <mxGeometry x="280" y="370" width="30" height="30" as="geometry" />
        </mxCell>
        <mxCell id="9SKw-1W0MjyN7YVq_DN_-60" value="" style="verticalLabelPosition=bottom;verticalAlign=top;html=1;shape=mxgraph.basic.arc;startAngle=0.2794990424337643;endAngle=0.11687506125234344;rounded=0;strokeWidth=6;align=center;fontFamily=Helvetica;fontSize=22;fontColor=default;fillColor=none;gradientColor=none;rotation=-75;strokeColor=#FF3333;" parent="1" vertex="1">
          <mxGeometry x="245" y="336" width="100" height="100" as="geometry" />
        </mxCell>
        <mxCell id="9SKw-1W0MjyN7YVq_DN_-63" value="" style="endArrow=classic;html=1;rounded=0;labelBackgroundColor=default;strokeColor=#FF3333;align=center;verticalAlign=middle;fontFamily=Helvetica;fontSize=22;fontColor=default;shape=connector;exitX=0.76;exitY=0.047;exitDx=0;exitDy=0;exitPerimeter=0;strokeWidth=6;" parent="1" edge="1">
          <mxGeometry width="50" height="50" relative="1" as="geometry">
            <mxPoint x="276" y="340" as="sourcePoint" />
            <mxPoint x="282" y="337" as="targetPoint" />
          </mxGeometry>
        </mxCell>
        <mxCell id="wnA76rDqA538FagZJxQ3-1" value="" style="group" vertex="1" connectable="0" parent="1">
          <mxGeometry x="500" y="120" width="60" height="30" as="geometry" />
        </mxCell>
        <mxCell id="9SKw-1W0MjyN7YVq_DN_-24" value="" style="endArrow=classic;html=1;rounded=0;labelBackgroundColor=default;strokeColor=default;align=center;verticalAlign=middle;fontFamily=Helvetica;fontSize=22;fontColor=default;shape=connector;movable=1;resizable=1;rotatable=1;deletable=1;editable=1;locked=0;connectable=1;" parent="wnA76rDqA538FagZJxQ3-1" edge="1">
          <mxGeometry width="50" height="50" relative="1" as="geometry">
            <mxPoint x="60" y="30" as="sourcePoint" />
            <mxPoint y="30" as="targetPoint" />
          </mxGeometry>
        </mxCell>
        <mxCell id="9SKw-1W0MjyN7YVq_DN_-25" value="&lt;span style=&quot;font-weight: 400;&quot;&gt;I&lt;sub&gt;C&lt;/sub&gt;&lt;/span&gt;" style="text;html=1;strokeColor=none;fillColor=none;align=center;verticalAlign=middle;whiteSpace=wrap;rounded=0;fontSize=22;fontFamily=Times New Roman;fontColor=default;fontStyle=3;movable=1;resizable=1;rotatable=1;deletable=1;editable=1;locked=0;connectable=1;" parent="wnA76rDqA538FagZJxQ3-1" vertex="1">
          <mxGeometry x="17" width="30" height="30" as="geometry" />
        </mxCell>
        <mxCell id="wnA76rDqA538FagZJxQ3-2" value="" style="group" vertex="1" connectable="0" parent="1">
          <mxGeometry x="265" y="310" width="55" height="35" as="geometry" />
        </mxCell>
        <mxCell id="9SKw-1W0MjyN7YVq_DN_-26" value="" style="endArrow=classic;html=1;rounded=0;labelBackgroundColor=default;strokeColor=default;align=center;verticalAlign=middle;fontFamily=Helvetica;fontSize=22;fontColor=default;shape=connector;movable=1;resizable=1;rotatable=1;deletable=1;editable=1;locked=0;connectable=1;" parent="wnA76rDqA538FagZJxQ3-2" edge="1">
          <mxGeometry width="50" height="50" relative="1" as="geometry">
            <mxPoint as="sourcePoint" />
            <mxPoint x="55" as="targetPoint" />
          </mxGeometry>
        </mxCell>
        <mxCell id="9SKw-1W0MjyN7YVq_DN_-27" value="&lt;span style=&quot;font-weight: 400;&quot;&gt;I&lt;sub&gt;B&lt;/sub&gt;&lt;/span&gt;" style="text;html=1;strokeColor=none;fillColor=none;align=center;verticalAlign=middle;whiteSpace=wrap;rounded=0;fontSize=22;fontFamily=Times New Roman;fontColor=default;fontStyle=3;movable=1;resizable=1;rotatable=1;deletable=1;editable=1;locked=0;connectable=1;" parent="wnA76rDqA538FagZJxQ3-2" vertex="1">
          <mxGeometry x="20" y="5" width="30" height="30" as="geometry" />
        </mxCell>
        <mxCell id="wnA76rDqA538FagZJxQ3-3" value="" style="group" vertex="1" connectable="0" parent="1">
          <mxGeometry x="470" y="385.82" width="32.5" height="44.18000000000001" as="geometry" />
        </mxCell>
        <mxCell id="9SKw-1W0MjyN7YVq_DN_-37" value="" style="endArrow=classic;html=1;rounded=0;labelBackgroundColor=default;strokeColor=default;align=center;verticalAlign=middle;fontFamily=Helvetica;fontSize=22;fontColor=default;shape=connector;movable=1;resizable=1;rotatable=1;deletable=1;editable=1;locked=0;connectable=1;" parent="wnA76rDqA538FagZJxQ3-3" edge="1">
          <mxGeometry width="50" height="50" relative="1" as="geometry">
            <mxPoint as="sourcePoint" />
            <mxPoint y="44.18000000000001" as="targetPoint" />
          </mxGeometry>
        </mxCell>
        <mxCell id="9SKw-1W0MjyN7YVq_DN_-38" value="&lt;span style=&quot;font-weight: 400;&quot;&gt;I&lt;sub&gt;E&lt;/sub&gt;&lt;/span&gt;" style="text;html=1;strokeColor=none;fillColor=none;align=center;verticalAlign=middle;whiteSpace=wrap;rounded=0;fontSize=22;fontFamily=Times New Roman;fontColor=default;fontStyle=3;movable=1;resizable=1;rotatable=1;deletable=1;editable=1;locked=0;connectable=1;" parent="wnA76rDqA538FagZJxQ3-3" vertex="1">
          <mxGeometry x="2.5" y="9.180000000000007" width="30" height="30" as="geometry" />
        </mxCell>
      </root>
    </mxGraphModel>
  </diagram>
</mxfile>
